<svg width="130" height="139" viewBox="0 0 130 139" fill="none" xmlns="http://www.w3.org/2000/svg">
<circle cx="65" cy="74" r="65" fill="#003A92"/>
<path d="M34.5 111.25C32.25 111.167 30.3333 110.375 28.75 108.875C27.1667 107.292 26.3333 105.375 26.25 103.125V72C26.3333 66.0833 27.1667 60.5 28.75 55.25C30.4167 50 33.125 45.5833 36.875 42C40.7083 38.3333 45.5417 36.3333 51.375 36H99.625C101.875 36.0833 103.75 36.9167 105.25 38.5C106.833 40 107.667 41.875 107.75 44.125C107.75 46.4583 106.958 48.4583 105.375 50.125C103.875 51.7917 101.958 52.6667 99.625 52.75H55.625C52.4583 52.9167 49.8333 54.125 47.75 56.375C45.6667 58.625 44.3333 61.2083 43.75 64.125C43.25 66.9583 43.0417 70.0833 43.125 73.5V103.125C43.0417 105.458 42.1667 107.417 40.5 109C38.8333 110.5 36.8333 111.25 34.5 111.25ZM49 78.375C49 76.0417 49.8333 74.0833 51.5 72.5C53.0833 70.8333 55.0417 70 57.375 70H99.625C101.958 70 103.917 70.8333 105.5 72.5C107.167 74.0833 108 76.0417 108 78.375C108 80.7083 107.208 82.7083 105.625 84.375C103.958 85.9583 101.958 86.75 99.625 86.75H57.375C55.0417 86.75 53.0417 85.9583 51.375 84.375C49.7917 82.7083 49 80.7083 49 78.375Z" fill="white"/>
</svg>
